<svg width="16" height="16" viewBox="0 0 16 16" xmlns="http://www.w3.org/2000/svg">
<path fill-rule="evenodd" clip-rule="evenodd" d="M12.6 15.4C13 15.8 13.4 16 14 16C14.6 16 15 15.8 15.4 15.4C16.2 14.6 16.2 13.4 15.4 12.6L11.5071 8.70711C11.1166 8.31658 11.1166 7.68342 11.5071 7.29289L15.4 3.4C16.2 2.6 16.2 1.4 15.4 0.6C14.6 -0.2 13.4 -0.2 12.6 0.6L8.70711 4.49289C8.31658 4.88342 7.68342 4.88342 7.29289 4.49289L3.4 0.6C2.6 -0.2 1.4 -0.2 0.6 0.6C-0.2 1.4 -0.2 2.6 0.6 3.4L4.49289 7.29289C4.88342 7.68342 4.88342 8.31658 4.49289 8.70711L0.6 12.6C-0.2 13.4 -0.2 14.6 0.6 15.4C1 15.8 1.4 16 2 16C2.6 16 3 15.8 3.4 15.4L7.29289 11.5071C7.68342 11.1166 8.31658 11.1166 8.70711 11.5071L12.6 15.4Z" fill="#573A3A"/>
</svg>
