<svg width="24" height="24" viewBox="0 0 24 24" xmlns="http://www.w3.org/2000/svg">
<path fill-rule="evenodd" clip-rule="evenodd" d="M16.6 19.4C17 19.8 17.4 20 18 20C18.6 20 19 19.8 19.4 19.4C20.2 18.6 20.2 17.4 19.4 16.6L15.5071 12.7071C15.1166 12.3166 15.1166 11.6834 15.5071 11.2929L19.4 7.4C20.2 6.6 20.2 5.4 19.4 4.6C18.6 3.8 17.4 3.8 16.6 4.6L12.7071 8.49289C12.3166 8.88342 11.6834 8.88342 11.2929 8.49289L7.4 4.6C6.6 3.8 5.4 3.8 4.6 4.6C3.8 5.4 3.8 6.6 4.6 7.4L8.49289 11.2929C8.88342 11.6834 8.88342 12.3166 8.49289 12.7071L4.6 16.6C3.8 17.4 3.8 18.6 4.6 19.4C5 19.8 5.4 20 6 20C6.6 20 7 19.8 7.4 19.4L11.2929 15.5071C11.6834 15.1166 12.3166 15.1166 12.7071 15.5071L16.6 19.4Z" fill="#63767E"/>
</svg>
