<svg width="24" height="24" viewBox="0 0 24 24" xmlns="http://www.w3.org/2000/svg">
<g clip-path="url(#clip0_1646_1212)">
<path d="M23.4898 10.8242C22.9632 10.4729 22.2516 10.6152 21.9006 11.1418L21.8665 11.1929C21.452 5.53145 16.7136 1.05176 10.9482 1.05176C4.91132 1.05183 0 5.96316 0 12C0 18.0369 4.91132 22.9482 10.9482 22.9482C11.7921 22.9482 12.4761 22.2642 12.4761 21.4203C12.4761 20.5764 11.7921 19.8924 10.9482 19.8924C6.59631 19.8923 3.05583 16.3518 3.05583 12C3.05583 7.64822 6.59631 4.10766 10.9482 4.10766C14.9817 4.10766 18.3177 7.14935 18.7842 11.0594C18.4165 10.6017 17.7539 10.4924 17.2563 10.8242C16.7297 11.1753 16.5875 11.8869 16.9386 12.4134L19.2077 15.8161C19.4755 16.2177 19.9111 16.4574 20.3731 16.4574C20.8351 16.4574 21.2707 16.2176 21.5383 15.8161L23.8074 12.4134C24.1584 11.8868 24.0163 11.1753 23.4898 10.8242Z" fill="#453A32"/>
</g>
<defs>
<clipPath id="clip0_1646_1212">
<rect width="24" height="24" fill="white"/>
</clipPath>
</defs>
</svg>
