<svg width="16" height="16" viewBox="0 0 16 16" xmlns="http://www.w3.org/2000/svg">
<g opacity="0.5">
<g clip-path="url(#clip0_894_12)">
<path d="M15.9959 16V15.9993H15.9999V10.1313C15.9999 7.26065 15.3819 5.04932 12.0259 5.04932C10.4125 5.04932 9.32985 5.93465 8.88785 6.77399H8.84119V5.31732H5.65918V15.9993H8.97252V10.71C8.97252 9.31732 9.23652 7.97065 10.9612 7.97065C12.6605 7.97065 12.6859 9.55999 12.6859 10.7993V16H15.9959Z" fill="#F2EFF4"/>
<path d="M0.26416 5.31787H3.58149V15.9999H0.26416V5.31787Z" fill="#F2EFF4"/>
<path d="M1.92133 0C0.860667 0 0 0.860667 0 1.92133C0 2.982 0.860667 3.86067 1.92133 3.86067C2.982 3.86067 3.84267 2.982 3.84267 1.92133C3.842 0.860667 2.98133 0 1.92133 0V0Z" fill="#F2EFF4"/>
</g>
</g>
<defs>
<clipPath id="clip0_894_12">
<rect width="16" height="16" fill="white"/>
</clipPath>
</defs>
</svg>
