<svg width="20" height="20" viewBox="0 0 20 20"  xmlns="http://www.w3.org/2000/svg">
<path d="M10.125 9C12.606 9 14.625 6.981 14.625 4.5C14.625 2.019 12.606 0 10.125 0C7.644 0 5.625 2.019 5.625 4.5C5.625 6.981 7.644 9 10.125 9ZM10.125 2C11.504 2 12.625 3.121 12.625 4.5C12.625 5.879 11.504 7 10.125 7C8.747 7 7.625 5.879 7.625 4.5C7.625 3.121 8.747 2 10.125 2Z"/>
<path d="M19.8789 18.778C18.8388 14.198 14.8275 11 10.125 11C5.4216 11 1.41123 14.199 0.37213 18.778C0.250119 19.317 0.58715 19.853 1.1262 19.975C1.66325 20.095 2.2003 19.759 2.32231 19.221C3.15339 15.559 6.36169 13 10.125 13C13.8874 13 17.0967 15.559 17.9278 19.222C18.0328 19.686 18.4458 20 18.9019 20C18.9749 20 19.0489 19.992 19.1249 19.976C19.6629 19.853 20.001 19.317 19.8789 18.778V18.778Z"/>
</svg>
