<svg width="48" height="48" viewBox="0 0 48 48" fill="none" xmlns="http://www.w3.org/2000/svg">
<circle cx="24" cy="24" r="24" fill="url(#paint0_linear_1096_4247)"/>
<path d="M21.9532 30.996L21.952 30.9961C21.9165 30.9974 21.8796 30.9982 21.8416 30.9982C21.1444 30.9982 20.4822 30.7377 19.9725 30.2593C19.9724 30.2592 19.9722 30.2591 19.9721 30.2589L15.7942 26.347C15.7942 26.3469 15.7942 26.3469 15.7941 26.3469C15.2039 25.7943 15.1788 24.8698 15.7391 24.2863C16.2949 23.7074 17.2166 23.6839 17.8019 24.2319C17.8019 24.2319 17.8019 24.232 17.8019 24.232L21.8228 27.9969L30.064 17.8742L30.064 17.8742C30.5711 17.2513 31.4881 17.1546 32.1156 17.6527L21.9532 30.996ZM21.9532 30.996C22.6896 30.9667 23.372 30.6504 23.8669 30.1057M21.9532 30.996L23.8669 30.1057M23.8669 30.1057C23.8872 30.0835 23.9047 30.0628 23.9192 30.045C23.9193 30.0448 23.9194 30.0447 23.9195 30.0446L32.3398 19.7019C32.851 19.0741 32.7483 18.1551 32.1158 17.6529L23.8669 30.1057Z" fill="white" stroke="white" stroke-width="1.33073"/>
<defs>
<linearGradient id="paint0_linear_1096_4247" x1="3.57628e-07" y1="24" x2="48" y2="24" gradientUnits="userSpaceOnUse">
<stop stop-color="#0AD582"/>
<stop offset="1" stop-color="#A2F2C0"/>
</linearGradient>
</defs>
</svg>
