<svg width="50" height="44" viewBox="0 0 50 44" fill="none" xmlns="http://www.w3.org/2000/svg">
<path d="M21.3265 2C22.8661 -0.666667 26.7151 -0.666664 28.2547 2L49.0393 38C50.5789 40.6667 48.6544 44 45.5752 44L4.00596 44C0.92676 44 -0.997737 40.6667 0.541864 38L21.3265 2Z" fill="#F2A2A2"/>
<path fill-rule="evenodd" clip-rule="evenodd" d="M25 14C23.8954 14 23 14.8954 23 16V28C23 29.1046 23.8954 30 25 30C26.1046 30 27 29.1046 27 28V16C27 14.8954 26.1046 14 25 14ZM25 33C23.8954 33 23 33.8954 23 35C23 36.1046 23.8954 37 25 37C26.1046 37 27 36.1046 27 35C27 33.8954 26.1046 33 25 33Z" fill="#D97C7C"/>
</svg>
