<svg width="19" height="24" viewBox="0 0 19 24" fill="none" xmlns="http://www.w3.org/2000/svg">
<g clip-path="url(#clip0_1016_993)">
<path fill-rule="evenodd" clip-rule="evenodd" d="M5.54207 1.2L5.62876 1.06919C6.06932 0.400789 6.81032 0 7.60476 0H11.3952C12.1897 0 12.9307 0.400789 13.3712 1.06919L13.4579 1.2H17.8125C18.468 1.2 19 1.7376 19 2.4C19 3.0624 18.468 3.6 17.8125 3.6C14.4008 3.6 4.59919 3.6 1.1875 3.6C0.532 3.6 0 3.0624 0 2.4C0 1.7376 0.532 1.2 1.1875 1.2H5.54207Z" fill="#0AD582"/>
<path fill-rule="evenodd" clip-rule="evenodd" d="M17.8125 5.9998C17.8125 5.3374 17.2805 4.7998 16.625 4.7998H2.375C1.7195 4.7998 1.1875 5.3374 1.1875 5.9998V20.3998C1.1875 22.3882 2.78231 23.9998 4.75 23.9998H14.25C16.2177 23.9998 17.8125 22.3882 17.8125 20.3998V5.9998Z" fill="#A2F2C0"/>
<path fill-rule="evenodd" clip-rule="evenodd" d="M5.9375 10.8001V18.0001C5.9375 18.6625 6.4695 19.2001 7.125 19.2001C7.7805 19.2001 8.3125 18.6625 8.3125 18.0001V10.8001C8.3125 10.1377 7.7805 9.6001 7.125 9.6001C6.4695 9.6001 5.9375 10.1377 5.9375 10.8001ZM10.6875 10.8001V18.0001C10.6875 18.6625 11.2195 19.2001 11.875 19.2001C12.5305 19.2001 13.0625 18.6625 13.0625 18.0001V10.8001C13.0625 10.1377 12.5305 9.6001 11.875 9.6001C11.2195 9.6001 10.6875 10.1377 10.6875 10.8001Z" fill="#0AD582"/>
</g>
<defs>
<clipPath id="clip0_1016_993">
<rect width="19" height="24" fill="white"/>
</clipPath>
</defs>
</svg>
