<svg width="23" height="18" viewBox="0 0 23 18" fill="none" xmlns="http://www.w3.org/2000/svg">
<path d="M13.7832 15.8843L13.7833 15.8842C12.8072 14.7936 12.3588 13.2445 12.3588 11.3188C12.3588 7.54559 13.7759 4.23336 16.5794 1.40247C17.1601 0.812224 17.8621 0.5 18.6647 0.5C19.3715 0.5 20.0003 0.762948 20.5346 1.2578C21.1171 1.72006 21.45 2.31562 21.45 3.02898C21.45 3.65575 21.1676 4.21868 20.6915 4.71018L20.6862 4.71571L20.6861 4.71567C19.6546 5.7484 18.949 6.8835 18.5569 8.12285C19.5935 8.32366 20.4744 8.78395 21.1783 9.51403C22.0598 10.3461 22.5 11.4047 22.5 12.6522C22.5 14.0198 22.016 15.1925 21.0539 16.1387L13.7832 15.8843ZM13.7832 15.8843L13.7911 15.8927M13.7832 15.8843L13.7911 15.8927M13.7911 15.8927C14.7974 16.966 16.0854 17.5 17.6147 17.5C18.9714 17.5 20.13 17.0493 21.0539 16.1388L13.7911 15.8927ZM1.92448 15.8842L1.92438 15.8843L1.93231 15.8927C2.9386 16.966 4.22654 17.5 5.75588 17.5C7.1124 17.5 8.27082 17.0494 9.19468 16.1391C10.1571 15.1928 10.6412 14.02 10.6412 12.6522C10.6412 11.4047 10.201 10.3461 9.31943 9.51403C8.61559 8.78395 7.73466 8.32366 6.69804 8.12285C7.09022 6.8835 7.79574 5.7484 8.82729 4.71567L8.82733 4.71571L8.83268 4.71018C9.30874 4.21868 9.59118 3.65575 9.59118 3.02898C9.59118 2.31562 9.2583 1.72006 8.67576 1.2578C8.14152 0.762948 7.51263 0.5 6.80588 0.5C6.00329 0.5 5.30135 0.812192 4.72062 1.40238C1.91712 4.23329 0.5 7.54555 0.5 11.3188C0.5 13.2445 0.948413 14.7936 1.92448 15.8842Z" stroke="#A2F2C0"/>
</svg>
