<svg width="22" height="18" viewBox="0 0 22 18" fill="none" xmlns="http://www.w3.org/2000/svg">
<path d="M1.85477 15.8751L1.85467 15.8752L1.86234 15.8837C2.82308 16.9597 4.05842 17.5 5.52941 17.5C6.83482 17.5 7.94689 17.0438 8.82974 16.1305C9.748 15.1824 10.2059 14.0123 10.2059 12.6522C10.2059 11.4127 9.79003 10.3567 8.94857 9.5227C8.27893 8.79345 7.43877 8.33023 6.44841 8.12633C6.82218 6.88013 7.49603 5.74121 8.47991 4.70694L8.47996 4.70698L8.48516 4.70134C8.94052 4.2077 9.20588 3.64743 9.20588 3.02898C9.20588 2.32562 8.89372 1.73162 8.33483 1.26576C7.82381 0.768954 7.21666 0.5 6.52941 0.5C5.74973 0.5 5.07287 0.819122 4.51807 1.41114C1.84639 4.24382 0.5 7.55339 0.5 11.3188C0.5 13.2393 0.925355 14.7847 1.85477 15.8751ZM13.1489 15.8751L13.1488 15.8752L13.1565 15.8837C14.1172 16.9597 15.3525 17.5 16.8235 17.5C18.1291 17.5 19.2413 17.0437 20.1243 16.1301C21.0422 15.1821 21.5 14.0121 21.5 12.6522C21.5 11.4127 21.0841 10.3567 20.2427 9.52271C19.5731 8.79345 18.7329 8.33023 17.7425 8.12633C18.1163 6.88012 18.7901 5.74121 19.774 4.70694L19.7741 4.70698L19.7793 4.70134C20.2346 4.2077 20.5 3.64743 20.5 3.02898C20.5 2.32562 20.1878 1.73162 19.6289 1.26576C19.1179 0.768955 18.5108 0.5 17.8235 0.5C17.0438 0.5 16.367 0.819131 15.8122 1.41116C13.1405 4.24385 11.7941 7.5534 11.7941 11.3188C11.7941 13.2393 12.2195 14.7847 13.1489 15.8751Z" stroke="#A2F2C0"/>
</svg>
