<svg width="24" height="24" viewBox="0 0 24 24" fill="none" xmlns="http://www.w3.org/2000/svg">
<g clip-path="url(#clip0_948_666)">
<path d="M13.4998 10.8V13.8H20.5798C19.8598 18 16.4998 21 12.2998 21C7.3798 21 3.2998 16.92 3.2998 12C3.2998 7.08 7.3798 3 12.2998 3C14.8198 3 16.9798 4.08 18.5398 5.76L20.6998 3.6C18.5398 1.44 15.6598 0 12.2998 0C5.6998 0 0.299805 5.4 0.299805 12C0.299805 18.6 5.6998 24 12.2998 24C18.8998 24 23.6998 18.6 23.6998 12V10.8H13.4998Z" fill="#DB4537"/>
</g>
<defs>
<clipPath id="clip0_948_666">
<rect width="24" height="24" fill="white"/>
</clipPath>
</defs>
</svg>
