<svg width="12" height="16" viewBox="0 0 12 16" fill="none" xmlns="http://www.w3.org/2000/svg">
<g clip-path="url(#clip0_1016_1000)">
<path fill-rule="evenodd" clip-rule="evenodd" d="M3.50026 0.8L3.555 0.712793C3.83325 0.267193 4.30126 0 4.80301 0H7.19699C7.69874 0 8.16675 0.267193 8.445 0.712793L8.49974 0.8H11.25C11.664 0.8 12 1.1584 12 1.6C12 2.0416 11.664 2.4 11.25 2.4C9.09525 2.4 2.90475 2.4 0.75 2.4C0.336 2.4 0 2.0416 0 1.6C0 1.1584 0.336 0.8 0.75 0.8H3.50026Z" fill="#0AD582"/>
<path fill-rule="evenodd" clip-rule="evenodd" d="M11.25 3.99995C11.25 3.55835 10.914 3.19995 10.5 3.19995H1.5C1.086 3.19995 0.75 3.55835 0.75 3.99995V13.6C0.75 14.9256 1.75725 16 3 16H9C10.2428 16 11.25 14.9256 11.25 13.6V3.99995Z" fill="#0AD582"/>
<path fill-rule="evenodd" clip-rule="evenodd" d="M3.75 7.20015V12.0001C3.75 12.4417 4.086 12.8001 4.5 12.8001C4.914 12.8001 5.25 12.4417 5.25 12.0001V7.20015C5.25 6.75855 4.914 6.40015 4.5 6.40015C4.086 6.40015 3.75 6.75855 3.75 7.20015ZM6.75 7.20015V12.0001C6.75 12.4417 7.086 12.8001 7.5 12.8001C7.914 12.8001 8.25 12.4417 8.25 12.0001V7.20015C8.25 6.75855 7.914 6.40015 7.5 6.40015C7.086 6.40015 6.75 6.75855 6.75 7.20015Z" fill="#081C22"/>
</g>
<defs>
<clipPath id="clip0_1016_1000">
<rect width="12" height="16" fill="white"/>
</clipPath>
</defs>
</svg>
