<svg width="44" height="44" viewBox="0 0 44 44" fill="none" xmlns="http://www.w3.org/2000/svg">
<path d="M40.1776 27.7749L34.2376 21.7799C34.21 21.7454 34.1741 21.7185 34.1332 21.7017C34.0923 21.6848 34.0478 21.6787 34.0039 21.6837C33.9595 21.6854 33.916 21.696 33.8758 21.7149C33.8356 21.7338 33.7997 21.7606 33.7701 21.7937L29.8101 25.9874C29.5541 26.2597 29.2453 26.477 28.9025 26.6259C28.5597 26.7749 28.1901 26.8524 27.8164 26.8537C27.4426 26.8524 27.0731 26.7749 26.7303 26.6259C26.3875 26.477 26.0787 26.2597 25.8226 25.9874L17.3251 16.9262C17.2646 16.8721 17.1863 16.8422 17.1051 16.8422C17.024 16.8422 16.9456 16.8721 16.8851 16.9262L3.65764 27.2387L1.95264 25.0249L15.1251 14.7124C15.7297 14.2424 16.4883 14.0156 17.2517 14.0767C18.0151 14.1377 18.728 14.4823 19.2501 15.0424L27.7339 24.1037L31.6664 19.9099C31.9478 19.6066 32.2879 19.3637 32.6661 19.1958C33.0443 19.028 33.4527 18.9388 33.8664 18.9337C34.2802 18.923 34.6918 18.998 35.0752 19.1542C35.4585 19.3104 35.8054 19.5443 36.0939 19.8412L42.0339 25.8362L40.1776 27.7749Z" fill="#E7EDF4"/>
<path d="M37.235 42.625H6.765C5.33548 42.625 3.96452 42.0571 2.95369 41.0463C1.94287 40.0355 1.375 38.6645 1.375 37.235V6.765C1.375 5.33548 1.94287 3.96452 2.95369 2.95369C3.96452 1.94287 5.33548 1.375 6.765 1.375H37.235C38.6645 1.375 40.0355 1.94287 41.0463 2.95369C42.0571 3.96452 42.625 5.33548 42.625 6.765V37.235C42.625 38.6645 42.0571 40.0355 41.0463 41.0463C40.0355 42.0571 38.6645 42.625 37.235 42.625ZM6.765 4.125C6.06483 4.125 5.39333 4.40314 4.89824 4.89824C4.40314 5.39333 4.125 6.06483 4.125 6.765V37.235C4.125 37.5817 4.19329 37.925 4.32596 38.2453C4.45863 38.5656 4.65309 38.8566 4.89824 39.1018C5.14338 39.3469 5.43442 39.5414 5.75472 39.674C6.07502 39.8067 6.41831 39.875 6.765 39.875H37.235C37.5817 39.875 37.925 39.8067 38.2453 39.674C38.5656 39.5414 38.8566 39.3469 39.1018 39.1018C39.3469 38.8566 39.5414 38.5656 39.674 38.2453C39.8067 37.925 39.875 37.5817 39.875 37.235V6.765C39.875 6.41831 39.8067 6.07502 39.674 5.75472C39.5414 5.43442 39.3469 5.14338 39.1018 4.89824C38.8566 4.65309 38.5656 4.45863 38.2453 4.32596C37.925 4.19329 37.5817 4.125 37.235 4.125H6.765Z" fill="#E7EDF4"/>
<path d="M27.9536 16.2661C29.4724 16.2661 30.7036 15.0349 30.7036 13.5161C30.7036 11.9973 29.4724 10.7661 27.9536 10.7661C26.4348 10.7661 25.2036 11.9973 25.2036 13.5161C25.2036 15.0349 26.4348 16.2661 27.9536 16.2661Z" fill="#E7EDF4"/>
<path d="M2.75 26.8125L15.8537 16.2663L18.2738 15.9775L26.2075 24.4475C26.2075 24.4475 27.5825 26.3313 28.7512 25.0388L32.6975 20.845C32.6975 20.845 33.4812 19.1263 35.1587 20.845C36.8363 22.5638 41.25 28.1875 41.25 28.1875L41.1538 38.1288C41.1538 38.1288 40.7412 41.25 36.6987 41.25C32.6562 41.25 6.44875 40.8238 6.44875 40.8238C6.44875 40.8238 2.75 41.7313 2.75 37.235C2.75 32.7388 2.75 26.8125 2.75 26.8125Z" fill="#E7EDF4"/>
</svg>
