<svg width="44" height="44" viewBox="0 0 44 44" fill="none" xmlns="http://www.w3.org/2000/svg">
<path d="M20.1659 2.38297C16.9098 2.68669 13.7806 3.79608 11.0603 5.6111C8.34008 7.42611 6.11436 9.88967 4.5839 12.7796C3.05344 15.6696 2.26637 18.895 2.29365 22.1651C2.32094 25.4351 3.16174 28.647 4.74022 31.511C4.88403 31.7879 4.96635 32.0926 4.98154 32.4043C4.99673 32.7159 4.94443 33.0272 4.82822 33.3168L3.69522 36.3381C3.4838 36.9007 3.43474 37.5113 3.55362 38.1004C3.6725 38.6895 3.95454 39.2334 4.36757 39.6699C4.7806 40.1064 5.308 40.4181 5.88962 40.5694C6.47124 40.7207 7.08366 40.7055 7.65705 40.5255L11.2669 39.398C11.8236 39.2106 12.4311 39.2454 12.9627 39.4951C15.7474 40.9518 18.8437 41.7117 21.9864 41.7098C23.381 41.7083 24.7718 41.5639 26.137 41.279C31.0388 40.2115 35.3492 37.3154 38.1902 33.1807C41.0312 29.0461 42.189 23.9838 41.4277 19.0253C40.6665 14.0667 38.0436 9.58488 34.0932 6.49278C30.1428 3.40069 25.1621 1.93095 20.1659 2.38297Z" fill="#0AD582"/>
<path d="M21.9987 20.166C21.3912 20.167 20.8089 20.4087 20.3793 20.8383C19.9498 21.2679 19.708 21.8502 19.707 22.4577V31.166C19.707 31.7738 19.9485 32.3567 20.3782 32.7865C20.808 33.2162 21.3909 33.4577 21.9987 33.4577C22.6065 33.4577 23.1894 33.2162 23.6192 32.7865C24.0489 32.3567 24.2904 31.7738 24.2904 31.166V22.4577C24.2894 21.8502 24.0476 21.2679 23.6181 20.8383C23.1885 20.4087 22.6062 20.167 21.9987 20.166Z" fill="#A2F2C0"/>
<path d="M21.9993 18.3327C23.7713 18.3327 25.2077 16.8963 25.2077 15.1243C25.2077 13.3524 23.7713 11.916 21.9993 11.916C20.2274 11.916 18.791 13.3524 18.791 15.1243C18.791 16.8963 20.2274 18.3327 21.9993 18.3327Z" fill="#A2F2C0"/>
</svg>
