<svg width="13" height="273" viewBox="0 0 13 273" fill="none" xmlns="http://www.w3.org/2000/svg">
<path d="M6.63636 136.46C7.56818 136.46 8.36932 136.631 9.03977 136.972C9.70739 137.312 10.2216 137.78 10.5824 138.374C10.9403 138.964 11.1193 139.636 11.1193 140.389C11.1193 141.145 10.9403 141.82 10.5824 142.413C10.2216 143.004 9.70597 143.47 9.03551 143.811C8.36506 144.152 7.56534 144.322 6.63636 144.322C5.70455 144.322 4.90483 144.152 4.23722 143.811C3.56676 143.47 3.05256 143.004 2.6946 142.413C2.33381 141.82 2.15341 141.145 2.15341 140.389C2.15341 139.636 2.33381 138.964 2.6946 138.374C3.05256 137.78 3.56676 137.312 4.23722 136.972C4.90483 136.631 5.70454 136.46 6.63636 136.46ZM6.63636 137.764C5.92614 137.764 5.32812 137.879 4.84233 138.109C4.35369 138.337 3.98437 138.649 3.73437 139.047C3.48153 139.442 3.35511 139.889 3.35511 140.389C3.35511 140.892 3.48153 141.341 3.73437 141.736C3.98437 142.131 4.35369 142.443 4.84233 142.673C5.32812 142.901 5.92614 143.014 6.63636 143.014C7.34659 143.014 7.94602 142.901 8.43466 142.673C8.92045 142.443 9.28977 142.131 9.54261 141.736C9.79261 141.341 9.91761 140.892 9.91761 140.389C9.91761 139.889 9.79261 139.442 9.54261 139.047C9.28977 138.649 8.92045 138.337 8.43466 138.109C7.94602 137.879 7.34659 137.764 6.63636 137.764ZM11 134.819L2.27273 134.819L2.27273 131.708C2.27273 131.032 2.3892 130.471 2.62216 130.025C2.85511 129.576 3.17756 129.24 3.58949 129.019C3.99858 128.797 4.47159 128.686 5.00852 128.686C5.54261 128.686 6.01278 128.799 6.41903 129.023C6.82244 129.245 7.13636 129.58 7.36079 130.029C7.58523 130.475 7.69744 131.036 7.69744 131.712L7.69744 134.069L6.56392 134.069L6.56392 131.831C6.56392 131.405 6.50284 131.059 6.38068 130.792C6.25852 130.522 6.08096 130.324 5.84801 130.199C5.61506 130.074 5.33523 130.012 5.00852 130.012C4.67898 130.012 4.39346 130.076 4.15199 130.203C3.91051 130.328 3.72585 130.526 3.59801 130.796C3.46733 131.063 3.40199 131.414 3.40199 131.848L3.40199 133.502L11 133.502L11 134.819ZM7.0625 130.51L11 128.354L11 129.854L7.0625 131.968L7.0625 130.51Z" fill="#63767E"/>
<path d="M6.5 273L6.5 163" stroke="#E7EDF4"/>
<path d="M6.5 110L6.5 0" stroke="#E7EDF4"/>
</svg>
