<svg width="96" height="48" viewBox="0 0 96 48" fill="none" xmlns="http://www.w3.org/2000/svg">
<path d="M37.437 10.567C34.7801 7.90924 31.3946 6.09909 27.7088 5.36551C24.023 4.63192 20.2025 5.00785 16.7303 6.44575C13.2582 7.88364 10.2905 10.3189 8.20247 13.4436C6.11448 16.5682 5 20.2419 5 24C5 27.7581 6.11448 31.4318 8.20247 34.5564C10.2905 37.6811 13.2582 40.1164 16.7303 41.5543C20.2025 42.9921 24.023 43.3681 27.7088 42.6345C31.3946 41.9009 34.7801 40.0908 37.437 37.433C41.653 33.6096 45.1476 29.0596 47.754 24C50.3605 18.9404 53.855 14.3904 58.071 10.567C60.728 7.90924 64.1135 6.09909 67.7993 5.36551C71.4851 4.63192 75.3056 5.00785 78.7777 6.44575C82.2499 7.88364 85.2176 10.3189 87.3056 13.4436C89.3936 16.5682 90.5081 20.2419 90.5081 24C90.5081 27.7581 89.3936 31.4318 87.3056 34.5564C85.2176 37.6811 82.2499 40.1164 78.7777 41.5543C75.3056 42.9921 71.4851 43.3681 67.7993 42.6345C64.1135 41.9009 60.728 40.0908 58.071 37.433C53.855 33.6096 50.3605 29.0596 47.754 24C45.1476 18.9404 41.653 14.3904 37.437 10.567" stroke="url(#paint0_linear_1083_2574)" stroke-width="10" stroke-linecap="round" stroke-linejoin="round"/>
<defs>
<linearGradient id="paint0_linear_1083_2574" x1="5" y1="24" x2="91" y2="24" gradientUnits="userSpaceOnUse">
<stop stop-color="white"/>
<stop offset="1" stop-color="#A1F2C0"/>
</linearGradient>
</defs>
</svg>
