<svg width="345" height="13" viewBox="0 0 345 13" fill="none" xmlns="http://www.w3.org/2000/svg">
<path d="M172.54 6.63636C172.54 7.56818 172.369 8.36932 172.028 9.03977C171.688 9.70739 171.22 10.2216 170.626 10.5824C170.036 10.9403 169.364 11.1193 168.611 11.1193C167.855 11.1193 167.18 10.9403 166.587 10.5824C165.996 10.2216 165.53 9.70597 165.189 9.03551C164.848 8.36506 164.678 7.56534 164.678 6.63636C164.678 5.70455 164.848 4.90483 165.189 4.23722C165.53 3.56676 165.996 3.05256 166.587 2.6946C167.18 2.33381 167.855 2.15341 168.611 2.15341C169.364 2.15341 170.036 2.33381 170.626 2.6946C171.22 3.05256 171.688 3.56676 172.028 4.23722C172.369 4.90483 172.54 5.70455 172.54 6.63636ZM171.236 6.63636C171.236 5.92614 171.121 5.32812 170.891 4.84233C170.663 4.35369 170.351 3.98438 169.953 3.73438C169.558 3.48153 169.111 3.35511 168.611 3.35511C168.108 3.35511 167.659 3.48153 167.264 3.73438C166.869 3.98438 166.557 4.35369 166.327 4.84233C166.099 5.32812 165.986 5.92614 165.986 6.63636C165.986 7.34659 166.099 7.94602 166.327 8.43466C166.557 8.92045 166.869 9.28977 167.264 9.54261C167.659 9.79261 168.108 9.91761 168.611 9.91761C169.111 9.91761 169.558 9.79261 169.953 9.54261C170.351 9.28977 170.663 8.92045 170.891 8.43466C171.121 7.94602 171.236 7.34659 171.236 6.63636ZM174.181 11V2.27273L177.292 2.27273C177.968 2.27273 178.529 2.3892 178.975 2.62216C179.424 2.85511 179.76 3.17756 179.981 3.58949C180.203 3.99858 180.314 4.47159 180.314 5.00852C180.314 5.54261 180.201 6.01278 179.977 6.41903C179.755 6.82244 179.42 7.13636 178.971 7.3608C178.525 7.58523 177.964 7.69744 177.288 7.69744H174.931V6.56392H177.169C177.595 6.56392 177.941 6.50284 178.208 6.38068C178.478 6.25852 178.676 6.08097 178.801 5.84801C178.926 5.61506 178.988 5.33523 178.988 5.00852C178.988 4.67898 178.924 4.39347 178.797 4.15199C178.672 3.91051 178.474 3.72585 178.204 3.59801C177.937 3.46733 177.586 3.40199 177.152 3.40199L175.498 3.40199V11H174.181ZM178.49 7.0625L180.646 11L179.146 11L177.032 7.0625L178.49 7.0625Z" fill="#63767E"/>
<path d="M0 6.5L150 6.5" stroke="#E7EDF4"/>
<path d="M195 6.5L345 6.5" stroke="#E7EDF4"/>
</svg>
