<svg width="44" height="44" viewBox="0 0 44 44" fill="none" xmlns="http://www.w3.org/2000/svg">
<path d="M44 22C44 34.1503 34.1503 44 22 44C9.84974 44 0 34.1503 0 22C0 9.84974 9.84974 0 22 0C34.1503 0 44 9.84974 44 22Z" fill="#F5A972"/>
<path fill-rule="evenodd" clip-rule="evenodd" d="M22 14C23.1046 14 24 13.1046 24 12C24 10.8954 23.1046 10 22 10C20.8954 10 20 10.8954 20 12C20 13.1046 20.8954 14 22 14ZM22 33C23.1046 33 24 32.1046 24 31V19C24 17.8954 23.1046 17 22 17C20.8954 17 20 17.8954 20 19V31C20 32.1046 20.8954 33 22 33Z" fill="#FCE9DC"/>
</svg>
