<svg width="72" height="72" viewBox="0 0 72 72" fill="none" xmlns="http://www.w3.org/2000/svg">
<path d="M36 72C55.8823 72 72 55.8823 72 36C72 16.1178 55.8823 0 36 0C16.1178 0 0 16.1178 0 36C0 55.8823 16.1178 72 36 72Z" fill="#0AD582"/>
<path d="M32.9757 50.4504C31.4136 52.013 28.8803 52.013 27.3182 50.4505L19.3869 42.5173C17.8253 40.9553 17.8253 38.4232 19.3869 36.8612L20.8291 35.4186C22.3913 33.8559 24.9246 33.8559 26.4868 35.4187L27.3181 36.2502C28.8803 37.813 31.4137 37.813 32.9759 36.2503L46.9523 22.2696C48.5145 20.707 51.0478 20.7069 52.61 22.2696L54.0523 23.7123C55.6139 25.2743 55.6139 27.8064 54.0523 29.3684L32.9757 50.4504Z" fill="#A2F2C0"/>
</svg>
