<svg width="192" height="192" viewBox="0 0 192 192" fill="none" xmlns="http://www.w3.org/2000/svg">
<path d="M143.862 37.898C162.929 59.4569 128.853 162.794 98.4317 175.683C68.0107 188.572 10.8249 123.903 22.1836 89.4594C33.5422 55.0156 124.811 16.3404 143.862 37.898Z" fill="#0AD582"/>
<path d="M83.7715 126.849C89.0527 126.849 93.334 122.822 93.334 117.854C87.1984 117.852 81.4995 117.844 74.209 117.854C74.209 122.822 78.4903 126.849 83.7715 126.849Z" fill="#014750"/>
<mask id="mask0_981_759" style="mask-type:alpha" maskUnits="userSpaceOnUse" x="74" y="117" width="20" height="10">
<path d="M83.7715 126.849C89.0527 126.849 93.334 122.822 93.334 117.854C87.1984 117.852 81.4995 117.844 74.209 117.854C74.209 122.822 78.4903 126.849 83.7715 126.849Z" fill="white"/>
</mask>
<g mask="url(#mask0_981_759)">
<path fill-rule="evenodd" clip-rule="evenodd" d="M83.2715 136.849C87.6898 136.849 91.2715 133.267 91.2715 128.849C91.2715 124.431 87.6898 120.849 83.2715 120.849C78.8532 120.849 75.2715 124.431 75.2715 128.849C75.2715 133.267 78.8532 136.849 83.2715 136.849Z" fill="#F2A2A2"/>
</g>
<path d="M83.7715 126.849C89.0182 126.849 93.2715 122.374 93.2715 116.854C87.176 116.852 81.5144 116.844 74.2715 116.854C74.2715 122.374 78.5248 126.849 83.7715 126.849Z" stroke="#014750" stroke-width="2" stroke-linecap="round" stroke-linejoin="round"/>
<path d="M61.9999 94.9128C61.9999 94.9128 63.756 92.698 66.3 92.292" stroke="#014750" stroke-width="2" stroke-linecap="round"/>
<path d="M104.396 94.9126C104.396 94.9126 102.444 92.3335 99.6519 91.8316" stroke="#014750" stroke-width="2" stroke-linecap="round"/>
<path d="M103.271 103.849C103.271 101.088 101.033 98.8491 98.2715 98.8491C95.5101 98.8491 93.2715 101.088 93.2715 103.849" stroke="#014750" stroke-width="2"/>
<path d="M73.2715 103.849C73.2715 101.088 71.0329 98.8491 68.2715 98.8491C65.5101 98.8491 63.2715 101.088 63.2715 103.849" stroke="#014750" stroke-width="2"/>
</svg>
