<svg width="192" height="192" viewBox="0 0 192 192" fill="none" xmlns="http://www.w3.org/2000/svg">
<path d="M143.862 37.898C162.929 59.4569 128.853 162.794 98.4317 175.683C68.0107 188.572 10.8249 123.903 22.1836 89.4594C33.5422 55.0156 124.811 16.3404 143.862 37.898Z" fill="#0AD582"/>
<path d="M68.2714 108.318C69.9256 108.318 71.2715 106.524 71.2715 104.318C71.2715 102.113 69.9258 100.318 68.2714 100.318C66.6173 100.318 65.2715 102.113 65.2715 104.318C65.2715 106.524 66.6171 108.318 68.2714 108.318Z" fill="#014750"/>
<path d="M102.271 104.318C102.271 102.113 100.926 100.318 99.2716 100.318C97.6173 100.318 96.2715 102.113 96.2715 104.318C96.2715 106.524 97.6171 108.318 99.2716 108.318C100.926 108.318 102.271 106.524 102.271 104.318Z" fill="#014750"/>
<path d="M61.9999 98.382C61.9999 98.382 63.756 96.1672 66.3 95.7612" stroke="#014750" stroke-width="1.5" stroke-linecap="round"/>
<path d="M104.396 98.382C104.396 98.382 102.64 96.1672 100.095 95.7612" stroke="#014750" stroke-width="1.5" stroke-linecap="round"/>
<path d="M73.7451 122.617C73.7451 122.617 77.1318 123 84 123C90.8682 123 93.79 122.617 93.79 122.617" stroke="#014750" stroke-width="2" stroke-linecap="round"/>
</svg>
