<svg width="192" height="192" viewBox="0 0 192 192" fill="none" xmlns="http://www.w3.org/2000/svg">
<path d="M143.862 37.898C162.929 59.4569 128.853 162.794 98.4317 175.683C68.0107 188.572 10.8249 123.903 22.1836 89.4594C33.5422 55.0156 124.811 16.3404 143.862 37.898Z" fill="#0AD582"/>
<path d="M67.2714 106.318C68.9256 106.318 70.2715 104.524 70.2715 102.318C70.2715 100.113 68.9258 98.3185 67.2714 98.3185C65.6173 98.3185 64.2715 100.113 64.2715 102.318C64.2715 104.524 65.6171 106.318 67.2714 106.318Z" fill="#014750"/>
<path d="M101.271 102.318C101.271 100.113 99.9258 98.3185 98.2716 98.3185C96.6173 98.3185 95.2715 100.113 95.2715 102.318C95.2715 104.524 96.6171 106.318 98.2716 106.318C99.9258 106.318 101.271 104.524 101.271 102.318Z" fill="#014750"/>
<path d="M66.2999 92.7612C66.2999 92.7612 64.5439 94.976 61.9998 95.382" stroke="#014750" stroke-width="1.5" stroke-linecap="round"/>
<path d="M98.0956 91.7612C98.0956 91.7612 99.8517 93.976 102.396 94.382" stroke="#014750" stroke-width="1.5" stroke-linecap="round"/>
<path d="M74.8291 122.918C74.8291 122.918 80.5957 117.762 91.4336 117.762" stroke="#014750" stroke-width="2" stroke-linecap="round"/>
</svg>
