<svg width="52" height="52" viewBox="0 0 52 52" fill="none" xmlns="http://www.w3.org/2000/svg">
<circle cx="26" cy="26" r="22" fill="#0AD582"/>
<circle cx="26" cy="26" r="24" stroke="#A2F2C0" stroke-opacity="0.5" stroke-width="4"/>
<path d="M30.9765 22.8728C30.9321 22.8728 30.8889 22.875 30.8483 22.8856C29.4522 23.2041 28.4096 24.4509 28.4096 25.9435L28.4101 26.7287L23.1304 21.449C22.52 20.8386 21.5213 20.8386 20.9109 21.449C20.3005 22.0594 20.3005 23.0582 20.9109 23.6685L23.3524 26.11C22.9013 26.0639 22.434 26.207 22.0883 26.5527C21.848 26.793 21.7055 27.0932 21.6544 27.405L20.6523 31.1793C20.5142 31.7014 20.6429 32.2785 21.0513 32.6869L22.8763 34.5119C24.8606 36.4962 28.0766 36.4962 30.0609 34.5119C31.0219 33.5509 31.513 32.3007 31.5424 31.0417L31.548 31.0462V23.4432C31.5481 23.128 31.2923 22.8723 30.9765 22.8728Z" fill="#014750"/>
<path d="M26.8315 17.8522V16L24.1992 18.6331L26.8315 21.2662V19.4216H29.1925V17.8522H26.8315Z" fill="#014750"/>
</svg>
