<svg width="12" height="16" viewBox="0 0 12 16" fill="none" xmlns="http://www.w3.org/2000/svg">
<path d="M11.4953 3.35366C9.82114 2.93758 8.24757 2.18945 6.868 1.15366L6.4 0.800326C6.2846 0.713777 6.14425 0.666992 6 0.666992C5.85575 0.666992 5.7154 0.713777 5.6 0.800326L5.13333 1.15166C3.75377 2.18745 2.1802 2.93558 0.506002 3.35166C0.361257 3.3876 0.232745 3.47104 0.141014 3.58863C0.0492836 3.70623 -0.00036695 3.85119 2.04193e-06 4.00033V7.08033C0.00291002 8.297 0.287633 9.49647 0.831841 10.5847C1.37605 11.6728 2.16495 12.6202 3.13667 13.3523L5.6 15.2003C5.7154 15.2869 5.85575 15.3337 6 15.3337C6.14425 15.3337 6.2846 15.2869 6.4 15.2003L8.86667 13.3523C9.83778 12.6198 10.626 11.6723 11.1697 10.5842C11.7133 9.49601 11.9975 8.29672 12 7.08033V4.00033C12 3.85171 11.9503 3.70735 11.8589 3.59019C11.7675 3.47302 11.6395 3.38977 11.4953 3.35366ZM8.47133 7.13833L5.80467 9.80499C5.67965 9.92997 5.51011 10.0002 5.33333 10.0002C5.15656 10.0002 4.98702 9.92997 4.862 9.80499L3.52867 8.47166C3.40723 8.34592 3.34003 8.17752 3.34155 8.00273C3.34307 7.82793 3.41318 7.66072 3.53679 7.53711C3.66039 7.41351 3.8276 7.3434 4.0024 7.34188C4.1772 7.34036 4.3456 7.40755 4.47133 7.52899L5.33333 8.39099L7.52867 6.19566C7.6544 6.07422 7.8228 6.00702 7.9976 6.00854C8.1724 6.01006 8.33961 6.08017 8.46321 6.20378C8.58682 6.32739 8.65693 6.49459 8.65845 6.66939C8.65997 6.84419 8.59277 7.01259 8.47133 7.13833Z" fill="url(#paint0_linear_1529_3828)"/>
<defs>
<linearGradient id="paint0_linear_1529_3828" x1="8.9407e-08" y1="8.00032" x2="12" y2="8.00032" gradientUnits="userSpaceOnUse">
<stop stop-color="#0AD582"/>
<stop offset="1" stop-color="#A2F2C0"/>
</linearGradient>
</defs>
</svg>
