<svg width="52" height="17" viewBox="0 0 52 17" fill="none" xmlns="http://www.w3.org/2000/svg">
<path d="M20.8134 0.405762L18.1719 15.907H22.3965L25.0402 0.405762H20.8134Z" fill="#014750"/>
<path d="M14.6324 0.423182L10.4947 10.9946L10.0535 9.39839C9.23751 7.47513 6.9209 4.71303 4.20117 2.97231L7.98467 15.8994L12.4549 15.8918L19.1081 0.419922L14.6324 0.423182Z" fill="#014750"/>
<path d="M8.44496 1.53328C8.19939 0.589037 7.48767 0.30761 6.60428 0.273926H0.0543294L0 0.582517C5.09718 1.81905 8.46995 4.79848 9.86948 8.38096L8.44496 1.53328Z" fill="#014750"/>
<path d="M33.6072 3.3767C34.9894 3.35497 35.9912 3.65704 36.7692 3.96998L37.1506 4.14927L37.7221 0.789537C36.8855 0.475513 35.574 0.138672 33.9376 0.138672C29.7629 0.138672 26.8204 2.24122 26.7976 5.25432C26.7704 7.48074 28.8936 8.7238 30.4974 9.46594C32.1436 10.2266 32.6956 10.7101 32.688 11.3892C32.6749 12.4269 31.3754 12.9028 30.1617 12.9028C28.4698 12.9028 27.5712 12.6692 26.1837 12.0911L25.6393 11.8434L25.0449 15.3129C26.0337 15.7464 27.8581 16.1191 29.752 16.1387C34.1929 16.1387 37.0789 14.0611 37.1093 10.8416C37.1278 9.0802 36.001 7.73609 33.5594 6.6332C32.0817 5.91388 31.1776 5.43578 31.1863 4.70994C31.1863 4.0656 31.9534 3.3767 33.6072 3.3767Z" fill="#014750"/>
<path d="M48.555 0.421387H45.2909C44.2771 0.421387 43.5231 0.69738 43.0776 1.70791L36.8047 15.914H41.2412C41.2412 15.914 41.9649 14.0037 42.129 13.5854C42.6147 13.5854 46.9252 13.5919 47.5391 13.5919C47.6651 14.133 48.0541 15.914 48.0541 15.914H51.9734L48.555 0.421387ZM43.3449 10.4126C43.6926 9.52264 45.028 6.08034 45.028 6.08034C45.0052 6.12271 45.3724 5.1839 45.5908 4.6004L45.8755 5.93691C45.8755 5.93691 46.685 9.63782 46.8545 10.4126H43.3449Z" fill="#014750"/>
</svg>
